<svg width="130" height="32" viewBox="0 0 130 32" fill="none" xmlns="http://www.w3.org/2000/svg">
    <path d="M33.8503 10.9714H47.0221V13.4701H41.8358V27.5555H38.9932V13.4701H33.8286L33.8503 10.9714ZM46.4579 15.5486H48.8883V17.8704H48.9317C49.0185 17.5387 49.1704 17.2291 49.3874 16.9196C49.6044 16.61 49.8648 16.3226 50.1903 16.0793C50.4941 15.814 50.8413 15.615 51.2319 15.4602C51.6008 15.3054 51.9914 15.2169 52.382 15.2169C52.6858 15.2169 52.9028 15.2391 53.0113 15.2391C53.1198 15.2612 53.25 15.2833 53.3584 15.2833V17.8262C53.1849 17.782 52.9896 17.7598 52.7943 17.7377C52.599 17.7156 52.4254 17.6935 52.2301 17.6935C51.7961 17.6935 51.3838 17.7819 50.9932 17.9588C50.6026 18.1357 50.2771 18.4011 49.9733 18.7328C49.6912 19.0866 49.4525 19.5067 49.2789 20.0153C49.1053 20.5238 49.0185 21.1209 49.0185 21.7842V27.4891H46.4145L46.4579 15.5486ZM65.2934 27.5555H62.7328V25.875H62.6894C62.3639 26.4941 61.8865 26.9585 61.2572 27.3344C60.6279 27.7103 59.9769 27.8872 59.3259 27.8872C57.7852 27.8872 56.6568 27.5113 55.9624 26.7152C55.268 25.9413 54.9208 24.7473 54.9208 23.1773V15.5486H57.5248V22.912C57.5248 23.9733 57.7201 24.7251 58.1324 25.1453C58.523 25.5875 59.0872 25.8086 59.8033 25.8086C60.3458 25.8086 60.8015 25.7202 61.1704 25.5433C61.5393 25.3664 61.8431 25.1453 62.0601 24.8578C62.2988 24.5704 62.4507 24.2166 62.5592 23.8185C62.6677 23.4205 62.7111 22.9783 62.7111 22.5139V15.5486H65.3151V27.5555H65.2934ZM69.7201 23.708C69.8069 24.4819 70.089 25.0126 70.5881 25.3443C71.0872 25.6538 71.6948 25.8086 72.3892 25.8086C72.6279 25.8086 72.91 25.7865 73.2138 25.7423C73.5176 25.6981 73.8214 25.6317 74.0818 25.5212C74.3639 25.4106 74.5809 25.2558 74.7545 25.0347C74.9281 24.8136 75.0149 24.5482 74.9932 24.2166C74.9715 23.8849 74.863 23.5974 74.6243 23.3763C74.3856 23.1552 74.1035 23.0004 73.7563 22.8456C73.4091 22.7129 72.9968 22.6024 72.5411 22.5139C72.0854 22.4255 71.6297 22.3149 71.1523 22.2044C70.6749 22.0938 70.1975 21.9611 69.7418 21.8063C69.2861 21.6516 68.8955 21.4526 68.5266 21.1651C68.1794 20.8997 67.8756 20.5681 67.6803 20.1479C67.4633 19.7278 67.3548 19.2413 67.3548 18.6222C67.3548 17.9588 67.5067 17.4282 67.8322 16.9859C68.136 16.5437 68.5483 16.1899 69.0257 15.9245C69.5031 15.6592 70.0456 15.4602 70.6315 15.3496C71.2174 15.2391 71.7816 15.1948 72.3024 15.1948C72.91 15.1948 73.4959 15.2612 74.0384 15.3938C74.5809 15.5265 75.1017 15.7255 75.5357 16.0351C75.9914 16.3226 76.3603 16.7206 76.6424 17.1849C76.9462 17.6493 77.1198 18.2242 77.2066 18.8876H74.4941C74.3639 18.2463 74.0818 17.8262 73.6478 17.6051C73.1921 17.3839 72.693 17.2734 72.1071 17.2734C71.9335 17.2734 71.6948 17.2955 71.4561 17.3176C71.1957 17.3618 70.9787 17.406 70.74 17.4945C70.523 17.5829 70.3277 17.7156 70.1758 17.8704C70.0239 18.0252 69.9371 18.2463 69.9371 18.5116C69.9371 18.8433 70.0456 19.0866 70.2626 19.2856C70.4796 19.4846 70.7617 19.6394 71.1306 19.7941C71.4778 19.9268 71.8901 20.0374 72.3458 20.1258C72.8015 20.2143 73.2789 20.3248 73.7563 20.4354C74.2337 20.546 74.6894 20.6786 75.1451 20.8334C75.6008 20.9882 76.0131 21.1872 76.3603 21.4747C76.7075 21.74 77.0113 22.0717 77.2283 22.4697C77.4452 22.8677 77.5537 23.3763 77.5537 23.9512C77.5537 24.6588 77.4018 25.2558 77.0764 25.7644C76.7509 26.2509 76.3386 26.671 75.8395 26.9806C75.3404 27.2901 74.7545 27.5113 74.1469 27.666C73.5176 27.7987 72.91 27.8872 72.3024 27.8872C71.5646 27.8872 70.8702 27.7987 70.2409 27.6218C69.6116 27.4449 69.0474 27.1796 68.5917 26.8479C68.136 26.4941 67.7671 26.074 67.5067 25.5433C67.2463 25.0347 67.0944 24.4156 67.0727 23.6859H69.6984V23.708H69.7201ZM78.2915 15.5486H80.2662V11.9223H82.8702V15.5265H85.2138V17.4945H82.8702V23.907C82.8702 24.1945 82.8919 24.4156 82.9136 24.6367C82.9353 24.8357 83.0004 25.0126 83.0655 25.1453C83.1523 25.2779 83.2825 25.3885 83.4344 25.4548C83.608 25.5212 83.825 25.5654 84.1288 25.5654C84.3024 25.5654 84.4977 25.5654 84.6713 25.5433C84.8449 25.5212 85.0402 25.4991 85.2138 25.4548V27.5113C84.9317 27.5555 84.6496 27.5776 84.3675 27.5997C84.0854 27.6439 83.825 27.6439 83.5212 27.6439C82.8268 27.6439 82.2843 27.5776 81.872 27.4449C81.4597 27.3123 81.1342 27.1132 80.8955 26.87C80.6568 26.6047 80.5049 26.2951 80.4181 25.9192C80.3313 25.5433 80.2879 25.0789 80.2662 24.5925V17.5166H78.2915V15.5044V15.5486ZM87.0366 15.5486H89.4886V17.1849H89.532C89.9009 16.4773 90.4 15.9909 91.051 15.6813C91.702 15.3717 92.3964 15.2169 93.1776 15.2169C94.1107 15.2169 94.9136 15.3717 95.608 15.7255C96.3024 16.0572 96.8666 16.4994 97.3223 17.0965C97.778 17.6714 98.1252 18.3569 98.3422 19.1308C98.5592 19.9047 98.6894 20.745 98.6894 21.6073C98.6894 22.4255 98.5809 23.1994 98.3856 23.9512C98.1686 24.703 97.8648 25.3885 97.4525 25.9634C97.0402 26.5383 96.5194 27.0027 95.8684 27.3565C95.2174 27.7103 94.4796 27.8872 93.6116 27.8872C93.2427 27.8872 92.8521 27.8429 92.4832 27.7766C92.1143 27.7103 91.7454 27.5997 91.3982 27.4449C91.051 27.2901 90.7255 27.0911 90.4434 26.8479C90.1396 26.6047 89.9009 26.3172 89.7056 26.0076H89.6622V32H87.0583V15.5486H87.0366ZM96.1288 21.5631C96.1288 21.0324 96.0637 20.5017 95.9118 19.9932C95.7816 19.4846 95.5646 19.0423 95.2825 18.6443C95.0004 18.2463 94.6532 17.9367 94.2626 17.6935C93.8503 17.4503 93.3729 17.3397 92.8521 17.3397C91.7671 17.3397 90.9425 17.7156 90.3783 18.4895C89.8358 19.2635 89.5537 20.3027 89.5537 21.5852C89.5537 22.2044 89.6188 22.7572 89.7707 23.2657C89.9226 23.7743 90.1179 24.2166 90.4217 24.5925C90.7038 24.9684 91.051 25.2558 91.4633 25.4769C91.8756 25.6981 92.3313 25.8086 92.8738 25.8086C93.4814 25.8086 93.9588 25.676 94.3711 25.4327C94.7834 25.1895 95.1089 24.8578 95.391 24.4819C95.6514 24.0839 95.8467 23.6417 95.9552 23.1331C96.0637 22.6024 96.1288 22.0938 96.1288 21.5631ZM100.707 10.9714H103.311V13.4701H100.707V10.9714ZM100.707 15.5486H103.311V27.5555H100.707V15.5486ZM105.633 10.9714H108.237V27.5555H105.633V10.9714ZM116.179 27.8872C115.246 27.8872 114.4 27.7324 113.662 27.4007C112.924 27.069 112.317 26.6489 111.796 26.0961C111.297 25.5433 110.906 24.8578 110.646 24.0839C110.386 23.31 110.234 22.4476 110.234 21.541C110.234 20.6344 110.364 19.7941 110.646 19.0202C110.906 18.2463 111.297 17.5829 111.796 17.008C112.295 16.4552 112.924 16.013 113.662 15.7034C114.4 15.3938 115.246 15.2169 116.179 15.2169C117.113 15.2169 117.959 15.3717 118.697 15.7034C119.434 16.013 120.042 16.4552 120.563 17.008C121.062 17.5608 121.452 18.2463 121.713 19.0202C121.973 19.7941 122.125 20.6344 122.125 21.541C122.125 22.4697 121.995 23.31 121.713 24.0839C121.431 24.8578 121.062 25.5212 120.563 26.0961C120.064 26.6489 119.434 27.0911 118.697 27.4007C117.959 27.7103 117.134 27.8872 116.179 27.8872ZM116.179 25.7865C116.744 25.7865 117.264 25.6538 117.677 25.4106C118.111 25.1674 118.436 24.8357 118.718 24.4377C119 24.0397 119.196 23.5753 119.326 23.0888C119.456 22.5803 119.521 22.0717 119.521 21.541C119.521 21.0324 119.456 20.5238 119.326 20.0153C119.196 19.5067 119 19.0645 118.718 18.6664C118.436 18.2684 118.089 17.9588 117.677 17.7156C117.243 17.4724 116.744 17.3397 116.179 17.3397C115.615 17.3397 115.094 17.4724 114.682 17.7156C114.248 17.9588 113.923 18.2905 113.641 18.6664C113.358 19.0645 113.163 19.5067 113.033 20.0153C112.903 20.5238 112.838 21.0324 112.838 21.541C112.838 22.0717 112.903 22.5803 113.033 23.0888C113.163 23.5974 113.358 24.0397 113.641 24.4377C113.923 24.8357 114.27 25.1674 114.682 25.4106C115.116 25.676 115.615 25.7865 116.179 25.7865ZM122.906 15.5486H124.881V11.9223H127.485V15.5265H129.829V17.4945H127.485V23.907C127.485 24.1945 127.507 24.4156 127.528 24.6367C127.55 24.8357 127.615 25.0126 127.68 25.1453C127.767 25.2779 127.897 25.3885 128.049 25.4548C128.223 25.5212 128.44 25.5654 128.744 25.5654C128.917 25.5654 129.113 25.5654 129.286 25.5433C129.46 25.5212 129.655 25.4991 129.829 25.4548V27.5113C129.547 27.5555 129.264 27.5776 128.982 27.5997C128.7 27.6439 128.44 27.6439 128.136 27.6439C127.442 27.6439 126.899 27.5776 126.487 27.4449C126.075 27.3123 125.749 27.1132 125.51 26.87C125.272 26.6047 125.12 26.2951 125.033 25.9192C124.946 25.5433 124.903 25.0789 124.881 24.5925V17.5166H122.906V15.5044V15.5486Z" fill="white"/>
    <path d="M31.0857 11.1803H19.2095L15.5537 0L11.8762 11.1803L0 11.1588L9.60477 18.0769L5.92727 29.2571L15.532 22.3391L25.1368 29.2571L21.4809 18.0769L31.0857 11.1803Z" fill="#00B67A"/>
    <path d="M22.8575 20.0821L22.078 17.3714L16.4575 21.9429L22.8575 20.0821Z" fill="#005128"/>
</svg>
